# xmcd CD database file
#
# Track frame offsets:
#	150
#	20340
#	37070
#	60520
#	82780
#	102480
#	121535
#	138635
#	157945
#	180235
#	202277
#	221805
#
# Disc length: 3177 seconds
#
# Revision: 0
# Processed by: cddbd v1.5.1PL0 Copyright (c) Steve Scherf et al.
# Submitted via: CDex 1.51
#
DISCID=9e0c670c
DTITLE=奥村愛子 - 万華鏡
DYEAR=2005
DGENRE=J-Pop
TTITLE0=いっさいがっさい（蜜命ヴァージョン）
TTITLE1=万華鏡
TTITLE2=冬の光
TTITLE3=宝石
TTITLE4=フリージア
TTITLE5=蝶
TTITLE6=いろのない日記帳
TTITLE7=捨てられ上手（穏やかMix）
TTITLE8=わたしはずるい（爽やかMix）
TTITLE9=東京から
TTITLE10=紙の舟
TTITLE11=明日からふたりは
EXTD=YEAR: 2005
EXTT0=
EXTT1=
EXTT2=
EXTT3=
EXTT4=
EXTT5=
EXTT6=
EXTT7=
EXTT8=
EXTT9=
EXTT10=
EXTT11=
PLAYORDER=
